# AST/ASF file generated using VICON BodyLanguage
# -----------------------------------------------
:version 1.10
:name VICON
:units
  mass 1.0
  length 0.45
  angle deg
:documentation
   .ast/.asf automatically generated from VICON data using
   VICON BodyBuilder and BodyLanguage model FoxedUp or BRILLIANT.MOD
:root
   order TX TY TZ RX RY RZ
   axis XYZ
   position 0 0 0  
   orientation 0 0 0 
:bonedata
  begin
     id 1 
     name lhipjoint
     direction 0.547975 -0.797114 0.253638 
     length 2.36201 
     axis 0 0 0  XYZ
  end
  begin
     id 2 
     name lfemur
     direction 0.34202 -0.939693 0  
     length 7.69075  
     axis 0 0 20  XYZ
    dof rx ry rz
    limits (-160.0 20.0)
           (-70.0 70.0)
           (-60.0 70.0)
  end
  begin
     id 3 
     name ltibia
     direction 0.34202 -0.939693 0   
     length 7.91399   
     axis 0 0 20   XYZ
    dof rx
    limits (-10.0 170.0)
  end
  begin
     id 4 
     name lfoot
     direction 0.0705293 -0.193778 0.978507   
     length 2.13618   
     axis -90 7.62852e-016 20   XYZ
    dof rx rz
    limits (-45.0 90.0)
           (-70.0 20.0)
  end
  begin
     id 5 
     name ltoes
     direction 1.53592e-011 -4.21925e-011 1   
     length 1.07518   
     axis -90 7.62852e-016 20   XYZ
    dof rx
    limits (-90.0 20.0)
  end
  begin
     id 6 
     name rhipjoint
     direction -0.57 -0.782963 0.249136   
     length 2.4047  
     axis 0 0 0  XYZ 
  end
  begin
     id 7 
     name rfemur
     direction -0.34202 -0.939693 0   
     length 7.51486   
     axis 0 0 -20   XYZ
    dof rx ry rz
    limits (-160.0 20.0)
           (-70.0 70.0)
           (-70.0 60.0)
  end
  begin
     id 8 
     name rtibia
     direction -0.34202 -0.939693 0   
     length 8.08317   
     axis 0 0 -20   XYZ
    dof rx
    limits (-10.0 170.0)
 end
 begin
     id 9 
     name rfoot
     direction -0.104954 -0.281256 0.953876   
     length 2.30343  
     axis -90 -7.62852e-016 -20   XYZ
    dof rx rz
    limits (-45.0 90.0)
           (-20.0 70.0)
  end
  begin
     id 10 
     name rtoes
     direction -1.53556e-011 -4.21922e-011 1   
     length 1.14803   
     axis -90 -7.62852e-016 -20   XYZ
    dof rx
    limits (-90.0 20.0)
  end
  begin
     id 11 
     name lowerback
     direction -0.0152855 0.99353 -0.11254   
     length 2.05311   
     axis 0 0 0   XYZ
    dof rx ry rz
    limits (-20.0 45.0)
           (-30.0 30.0)
           (-30.0 30.0)
  end
  begin
     id 12 
     name upperback
     direction -0.00157509 0.999443 -0.033332   
     length 2.06353   
     axis 0 0 0   XYZ
    dof rx ry rz
    limits (-20.0 45.0)
           (-30.0 30.0)
           (-30.0 30.0)
  end
  begin
     id 13 
     name thorax
     direction 0.00577788 0.999804 0.0189484   
     length 2.08472   
     axis 0 0 0   XYZ
    dof rx ry rz
    limits (-20.0 45.0)
           (-30.0 30.0)
           (-30.0 30.0)
  end
  begin
     id 14 
     name lowerneck
     direction -1.09301e-005 0.994719 0.10264   
     length 1.76249   
     axis 0 0 0   XYZ
    dof rx ry rz
    limits (-20.0 45.0)
           (-30.0 30.0)
           (-30.0 30.0)
  end
  begin
     id 15 
     name upperneck
     direction 0.0495018 0.988526 -0.142706   
     length 1.77897   
     axis 0 0 0   XYZ
    dof rx ry rz
    limits (-20.0 45.0)
           (-30.0 30.0)
           (-30.0 30.0)
  end
  begin
     id 16
     name head
     direction 0.0142736 0.998114 -0.0597101  
     length 1.78934  
     axis 0 0 0   XYZ
    dof rx ry rz
    limits (-20.0 45.0)
           (-30.0 30.0)
           (-30.0 30.0)
  end
  begin
     id 17 
     name lclavicle
     direction 0.918111 0.396107 -0.0130883  
     length 3.37276  
     axis 0 0 0   XYZ
    dof ry rz
    limits (-20.0 10.0)
           (0.0 20.0)
  end
  begin
     id 18 
     name lhumerus
     direction 1 -4.48975e-011 -3.26108e-027   
     length 5.34298   
     axis 180 -30 -90   XYZ
    dof rx ry rz
    limits (-60.0 90.0)
           (-90.0 90.0)
           (-90.0 90.0)
  end
  begin
     id 19
     name lradius
     direction 1 -4.48964e-011 -8.84413e-028   
     length 3.67262   
     axis 180 -30 -90   XYZ
    dof rx
    limits (-10.0 170.0)
  end
  begin
     id 20
     name lwrist
     direction 1 -4.48991e-011 -1.24264e-027   
     length 1.83631   
     axis -2.17013e-015 90 90   XYZ
    dof ry
    limits (-180.0 0.0)
 end
  begin
     id 21 
     name lhand
     direction 1 -4.48855e-011 -2.48528e-027   
     length 0.599298   
     axis 1.58582e-015 90 90   XYZ
    dof rx rz
    limits (-90.0 90.0)
           (-45.0 45.0)
  end
  begin
     id 22 
     name lfingers
     direction 1 -4.48811e-011 -4.97056e-027   
     length 0.48317   
     axis 3.17164e-015 90 90   XYZ
    dof rx
    limits (0.0 90.0)
  end
  begin
     id 23
     name lthumb
     direction 0.707107 -6.34882e-011 0.707107   
     length 0.693738   
     axis -90 45 2.85299e-015   XYZ
    dof rx rz
    limits (-45.0 45.0)
           (-45.0 45.0)
  end
  begin
     id 24 
     name rclavicle
     direction -0.920511 0.384752 -0.0680135   
     length 3.43787  
     axis 0 0 0   XYZ 
    dof ry rz
    limits (-10.0 20.0)
           (-20.0 0.0)
  end
  begin
     id 25 
     name rhumerus
     direction -0.999976 -0.00330524 0.00603274  
     length 5.5498   
     axis 180 30 90   XYZ
    dof rx ry rz
    limits (-90.0 60.0)
           (-90.0 90.0)
           (-90.0 90.0)
  end
  begin
     id 26 
     name rradius
     direction -1 -4.48967e-011 8.62438e-027   
     length 3.69401   
     axis 180 30 90   XYZ
    dof rx
    limits (-10.0 170.0)
  end
  begin
     id 27 
     name rwrist
     direction -1 -4.4897e-011 9.54866e-027   
     length 1.84701   
     axis -7.69462e-015 -90 -90   XYZ
    dof ry
    limits (-180.0 0.0)
  end
  begin
     id 28
     name rhand
     direction -1 -4.48982e-011 1.90973e-026   
     length 0.638113   
     axis -1.21857e-014 -90 -90   XYZ
    dof rx rz
    limits (-90.0 90.0)
           (-45.0 45.0)
  end
  begin
     id 29
     name rfingers
     direction -1 -4.48936e-011 3.81946e-026   
     length 0.514463   
     axis -2.43714e-014 -90 -90   XYZ
    dof rx
    limits (0.0 90.0)
  end
  begin
     id 30
     name rthumb
     direction -0.707107 -6.34942e-011 0.707107   
     length 0.738669   
     axis -90 -45 -2.85299e-015   XYZ
    dof rx rz
    limits (-45.0 45.0)
           (-45.0 45.0)
  end
:hierarchy
  begin
    root lhipjoint rhipjoint lowerback
    lhipjoint lfemur
    lfemur ltibia
    ltibia lfoot
    lfoot ltoes
    rhipjoint rfemur
    rfemur rtibia
    rtibia rfoot
    rfoot rtoes
    lowerback upperback
    upperback thorax
    thorax lowerneck lclavicle rclavicle
    lowerneck upperneck
    upperneck head
    lclavicle lhumerus
    lhumerus lradius
    lradius lwrist
    lwrist lhand lthumb
    lhand lfingers
    rclavicle rhumerus
    rhumerus rradius
    rradius rwrist
    rwrist rhand rthumb
    rhand rfingers
  end

#!OML:ASF F:\twosubjects\two\Thursday\Session 1\Rory.ASF
:FULLY-SPECIFIED
:DEGREES
16
root 9.22539 18.1082 -13.9708 3.42683 1.5616 7.85211
lowerback 0.964945 -2.29599 -9.20188
upperback 1.73141 -3.04255 -2.17301
thorax 1.62008 -1.62863 2.86748
lowerneck -10.451 -1.3889 -2.45188
upperneck 19.5596 -2.23095 3.68415
head 7.81964 -0.899745 1.40536
rclavicle -3.73715e-014 -5.04913e-014
rhumerus -16.2175 -1.06978 -75.5841
rradius 51.838
rwrist 4.18999
rhand -24.0502 28.0537
rfingers 7.12502
rthumb 2.42884 -1.91219
lclavicle -3.73715e-014 -5.04913e-014
lhumerus 7.18553 -9.40315 74.8644
lradius 43.3932
lwrist -2.60044
lhand -11.2511 31.5487
lfingers 7.12502
lthumb 14.7786 61.0018
rfemur -29.0699 9.77699 8.41442
rtibia 17.3172
rfoot -10.7948 -14.5266
rtoes -11.0022
lfemur 14.9995 1.44285 -29.7573
ltibia -7.95139e-014
lfoot -4.23565 -3.50193
ltoes -8.76928
17
root 9.22081 18.0675 -13.8339 3.48593 1.74568 8.20059
lowerback 0.820808 -2.54262 -9.51283
upperback 1.43688 -3.37509 -2.08042
thorax 1.45859 -1.78379 3.12935
lowerneck -9.54508 -1.12557 -2.57742
upperneck 19.2603 -1.80728 3.45642
head 7.54208 -0.739482 1.39382
rclavicle -4.4155e-014 -5.1684e-015
rhumerus -15.5185 0.157491 -75.4183
rradius 52.3136
rwrist 3.37858
rhand -24.539 28.01
rfingers 7.12502
rthumb 1.95681 -1.96075
lclavicle -4.4155e-014 -5.1684e-015
lhumerus 8.06679 -11.0125 73.6916
lradius 43.4645
lwrist -0.690278
lhand -11.8428 32.0787
lfingers 7.12502
lthumb 14.2084 61.5728
rfemur -28.9716 8.36756 8.64916
rtibia 17.7458
rfoot -9.62447 -13.4823
rtoes -11.6051
lfemur 13.474 1.2381 -30.0428
ltibia 3.87596
lfoot -6.05765 -3.63345
ltoes -11.7361
18
root 9.21275 18.0454 -13.6904 3.46036 1.79045 8.0475
lowerback 0.755015 -2.40209 -9.09588
upperback 1.63079 -3.16644 -2.15207
thorax 1.64287 -1.68708 2.82146
lowerneck -10.6451 -1.31197 -2.39808
upperneck 19.6577 -2.10559 3.54452
head 7.88104 -0.846725 1.36234
rclavicle -4.83916e-014 -2.54444e-014
rhumerus -14.3021 0.292673 -75.2023
rradius 53.0406
rwrist 2.98296
rhand -25.2394 27.0771
rfingers 7.12502
rthumb 1.28033 -2.89876
lclavicle -4.83916e-014 -2.54444e-014
lhumerus 9.78429 -11.7059 73.1721
lradius 43.753
lwrist -0.444334
lhand -11.6955 31.9881
lfingers 7.12502
lthumb 14.3504 61.4721
rfemur -28.9248 7.33182 9.42419
rtibia 18.5724
rfoot -8.17949 -12.9599
rtoes -13.7398
lfemur 12.877 1.19408 -29.7438
ltibia 6.02325
lfoot -6.82335 -3.93341
ltoes -10.5518
19
root 9.19553 18.0423 -13.5334 2.94701 2.01481 7.65841
lowerback 0.970468 -2.45342 -8.73096
upperback 1.5384 -3.26763 -1.99708
thorax 1.42413 -1.72369 2.79235
lowerneck -9.99108 -1.37766 -2.7596
upperneck 19.8069 -2.21776 3.88383
head 7.82293 -0.901499 1.52766
rclavicle -2.41026e-014 -2.05742e-014
rhumerus -14.0677 1.42244 -74.932
rradius 54.156
rwrist 2.46719
rhand -25.4594 26.3818
rfingers 7.12502
rthumb 1.06792 -3.59524
lclavicle -2.41026e-014 -2.05742e-014
lhumerus 9.88696 -11.3459 73.3282
lradius 44.4371
lwrist -1.38978
lhand -11.1375 31.5705
lfingers 7.12502
lthumb 14.8881 61.0156
rfemur -28.348 6.59116 10.4419
rtibia 19.6169
rfoot -5.80172 -13.2714
rtoes -14.3718
lfemur 13.4019 1.05302 -29.1464
ltibia 7.09125
lfoot -7.10983 -4.10223
ltoes -10.9382
20
root 9.17771 18.0122 -13.3782 2.51079 2.34888 7.82365
lowerback 0.989598 -2.52718 -8.8614
upperback 1.68086 -3.3579 -2.03951
thorax 1.57762 -1.77948 2.81458
lowerneck -9.91321 -1.35209 -2.66871
upperneck 19.8882 -2.20728 3.90187
head 7.83454 -0.888578 1.52021
rclavicle -1.81391e-014 -4.08502e-014
rhumerus -13.1371 1.8987 -74.7847
rradius 54.752
rwrist 2.15006
rhand -25.2298 26.4199
rfingers 7.12502
rthumb 1.28966 -3.55597
lclavicle -1.81391e-014 -4.08502e-014
lhumerus 10.8804 -12.4354 72.4384
lradius 44.9928
lwrist -0.859642
lhand -11.24 31.667
lfingers 7.12502
lthumb 14.7893 61.1193
rfemur -27.9214 6.00179 10.6549
rtibia 20.5466
rfoot -2.17303 -14.2363
rtoes -7.55152
lfemur 14.3988 0.774065 -29.2025
ltibia 7.12592
lfoot -6.6198 -4.17164
ltoes -13.2044
21
root 9.16074 18.0036 -13.2313 2.42431 2.5721 8.27519
lowerback 0.841769 -2.54367 -9.20237
upperback 1.83081 -3.35028 -2.17062
thorax 1.8299 -1.79274 2.85378
lowerneck -10.3569 -1.39474 -2.46245
upperneck 19.9986 -2.26608 3.74247
head 7.95001 -0.910272 1.4258
rclavicle -1.93442e-014 -1.0138e-014
rhumerus -11.5615 1.61911 -74.7529
rradius 54.8119
rwrist 2.21621
rhand -25.0431 26.4268
rfingers 7.12502
rthumb 1.46997 -3.54787
lclavicle -1.93442e-014 -1.0138e-014
lhumerus 12.6462 -13.3406 71.6442
lradius 44.785
lwrist -0.213666
lhand -11.5224 31.7897
lfingers 7.12502
lthumb 14.5172 61.2618
rfemur -28.0289 5.93132 10.262
rtibia 21.4913
rfoot -2.21289 -12.1855
rtoes -3.90257
lfemur 14.9771 0.543035 -29.5772
ltibia 7.06046
lfoot -5.81686 -4.37629
ltoes -14.2011
